<svg width="20" height="25" viewBox="0 0 20 25" fill="none" xmlns="http://www.w3.org/2000/svg">
<path d="M11.577 1.06055H6.17747C3.73679 1.06055 2.51645 1.06055 1.75822 1.81877C1 2.57699 1 3.79733 1 6.23802V19.1817C1 21.6224 1 22.8427 1.75822 23.6009C2.51645 24.3592 3.73679 24.3592 6.17747 24.3592H13.9437C16.3844 24.3592 17.6047 24.3592 18.3629 23.6009C19.1211 22.8427 19.1211 21.6224 19.1211 19.1817V8.60467C19.1211 8.0756 19.1211 7.81106 19.0226 7.57319C18.9241 7.33533 18.737 7.14827 18.3629 6.77416L13.4075 1.81877C13.0334 1.44466 12.8464 1.2576 12.6085 1.15907C12.3706 1.06055 12.1061 1.06055 11.577 1.06055Z" stroke="white" stroke-width="1.2"/>
<path d="M6.17773 14.0042L13.9439 14.0042" stroke="white" stroke-width="1.2" stroke-linecap="round"/>
<path d="M6.17773 19.1817L11.3552 19.1817" stroke="white" stroke-width="1.2" stroke-linecap="round"/>
<path d="M11.355 1.06055V6.23802C11.355 7.45836 11.355 8.06853 11.7341 8.44764C12.1132 8.82675 12.7234 8.82675 13.9437 8.82675H19.1212" stroke="white" stroke-width="1.2"/>
</svg>
