<svg width="693" height="1089" viewBox="0 0 693 1089" fill="none" xmlns="http://www.w3.org/2000/svg">
<path d="M20 29.7793L20 1064.78" stroke="#8D6742" stroke-width="2" stroke-miterlimit="10"/>
<path d="M674 29.7793L674 1064.78" stroke="#8D6742" stroke-width="2" stroke-miterlimit="10"/>
<rect x="21" y="29.7793" width="652" height="1029" fill="#F4DDB4"/>
<path d="M13.6011 29.5292H679.898" stroke="#8D6742" stroke-width="2" stroke-miterlimit="10"/>
<path d="M346.75 58.0586C362.507 58.0586 375.28 45.2856 375.28 29.5293C375.28 13.773 362.507 1 346.75 1C330.994 1 318.221 13.773 318.221 29.5293C318.221 45.2856 330.994 58.0586 346.75 58.0586Z" fill="#F3DCB3"/>
<path d="M346.75 58.0586C362.507 58.0586 375.28 45.2856 375.28 29.5293C375.28 13.773 362.507 1 346.75 1C330.994 1 318.221 13.773 318.221 29.5293C318.221 45.2856 330.994 58.0586 346.75 58.0586Z" stroke="#8D6742" stroke-width="2" stroke-miterlimit="10"/>
<path d="M19.4853 41.0518C19.8784 38.1342 21.2187 35.4264 23.3004 33.3447C25.3821 31.263 28.0899 29.9227 31.0075 29.5296C28.0899 29.1366 25.3821 27.7962 23.3004 25.7145C21.2187 23.6328 19.8784 20.925 19.4853 18.0074C19.0941 20.9196 17.7591 23.6233 15.6847 25.7044C13.6103 27.7854 10.9109 29.1291 8 29.5296C10.9109 29.9301 13.6103 31.2738 15.6847 33.3548C17.7591 35.4359 19.0941 38.1396 19.4853 41.0518Z" fill="#F4DDB4"/>
<path d="M19.4853 41.0518C19.8784 38.1342 21.2187 35.4264 23.3004 33.3447C25.3821 31.263 28.0899 29.9227 31.0075 29.5296C28.0899 29.1366 25.3821 27.7962 23.3004 25.7145C21.2187 23.6328 19.8784 20.925 19.4853 18.0074C19.0941 20.9196 17.7591 23.6233 15.6847 25.7044C13.6103 27.7854 10.9109 29.1291 8 29.5296C10.9109 29.9301 13.6103 31.2738 15.6847 33.3548C17.7591 35.4359 19.0941 38.1396 19.4853 41.0518Z" stroke="#8D6742" stroke-width="2" stroke-miterlimit="10"/>
<path d="M673.485 41.0519C673.094 38.1397 671.759 35.436 669.685 33.355C667.61 31.2739 664.911 29.9302 662 29.5297C664.911 29.1292 667.61 27.7856 669.685 25.7045C671.759 23.6235 673.094 20.9198 673.485 18.0076C673.884 20.9228 675.227 23.6273 677.307 25.7079C679.388 27.7885 682.092 29.1308 685.007 29.5297C682.092 29.9287 679.388 31.271 677.307 33.3516C675.227 35.4322 673.884 38.1367 673.485 41.0519Z" fill="#F4DDB4"/>
<path d="M673.485 41.0519C673.094 38.1397 671.759 35.436 669.685 33.355C667.61 31.2739 664.911 29.9302 662 29.5297C664.911 29.1292 667.61 27.7856 669.685 25.7045C671.759 23.6235 673.094 20.9198 673.485 18.0076C673.884 20.9228 675.227 23.6273 677.307 25.7079C679.388 27.7885 682.092 29.1308 685.007 29.5297C682.092 29.9287 679.388 31.271 677.307 33.3516C675.227 35.4322 673.884 38.1367 673.485 41.0519Z" stroke="#8D6742" stroke-width="2" stroke-miterlimit="10"/>
<path d="M299.336 29.5297C299.336 27.7968 299.85 26.1029 300.813 24.6621C301.776 23.2213 303.144 22.0985 304.745 21.4354C306.346 20.7722 308.107 20.5987 309.807 20.9368C311.506 21.2748 313.068 22.1092 314.293 23.3345C315.518 24.5598 316.353 26.1209 316.691 27.8204C317.029 29.5199 316.855 31.2816 316.192 32.8825C315.529 34.4834 314.406 35.8517 312.965 36.8144C311.524 37.7771 309.831 38.2909 308.098 38.2909C305.774 38.2909 303.546 37.3679 301.903 35.7248C300.259 34.0818 299.336 31.8533 299.336 29.5297Z" fill="#F3DCB3" stroke="#8D6742" stroke-width="2" stroke-miterlimit="10"/>
<path d="M394.165 29.5297C394.165 27.7968 393.651 26.1029 392.688 24.6621C391.725 23.2213 390.357 22.0985 388.756 21.4354C387.155 20.7722 385.394 20.5987 383.694 20.9368C381.995 21.2748 380.433 22.1092 379.208 23.3345C377.983 24.5598 377.148 26.1209 376.81 27.8204C376.472 29.5199 376.646 31.2816 377.309 32.8825C377.972 34.4834 379.095 35.8517 380.536 36.8144C381.977 37.7771 383.67 38.2909 385.403 38.2909C387.724 38.2812 389.947 37.355 391.588 35.714C393.229 34.0731 394.155 31.8503 394.165 29.5297Z" fill="#F3DCB3" stroke="#8D6742" stroke-width="2" stroke-miterlimit="10"/>
<path d="M13.6011 1059.31H679.898" stroke="#8D6742" stroke-width="2" stroke-miterlimit="10"/>
<path d="M346.75 1087.84C362.507 1087.84 375.28 1075.06 375.28 1059.31C375.28 1043.55 362.507 1030.78 346.75 1030.78C330.994 1030.78 318.221 1043.55 318.221 1059.31C318.221 1075.06 330.994 1087.84 346.75 1087.84Z" fill="#F3DCB3"/>
<path d="M346.75 1087.84C362.507 1087.84 375.28 1075.06 375.28 1059.31C375.28 1043.55 362.507 1030.78 346.75 1030.78C330.994 1030.78 318.221 1043.55 318.221 1059.31C318.221 1075.06 330.994 1087.84 346.75 1087.84Z" stroke="#8D6742" stroke-width="2" stroke-miterlimit="10"/>
<path d="M19.4853 1070.82C19.8784 1067.91 21.2187 1065.2 23.3004 1063.12C25.3821 1061.03 28.0899 1059.69 31.0075 1059.3C28.0899 1058.91 25.3821 1057.57 23.3004 1055.49C21.2187 1053.4 19.8784 1050.7 19.4853 1047.78C19.0941 1050.69 17.7591 1053.4 15.6847 1055.48C13.6103 1057.56 10.9109 1058.9 8 1059.3C10.9109 1059.7 13.6103 1061.05 15.6847 1063.13C17.7591 1065.21 19.0941 1067.91 19.4853 1070.82Z" fill="#F4DDB4"/>
<path d="M19.4853 1070.82C19.8784 1067.91 21.2187 1065.2 23.3004 1063.12C25.3821 1061.03 28.0899 1059.69 31.0075 1059.3C28.0899 1058.91 25.3821 1057.57 23.3004 1055.49C21.2187 1053.4 19.8784 1050.7 19.4853 1047.78C19.0941 1050.69 17.7591 1053.4 15.6847 1055.48C13.6103 1057.56 10.9109 1058.9 8 1059.3C10.9109 1059.7 13.6103 1061.05 15.6847 1063.13C17.7591 1065.21 19.0941 1067.91 19.4853 1070.82Z" stroke="#8D6742" stroke-width="2" stroke-miterlimit="10"/>
<path d="M673.485 1070.83C673.094 1067.92 671.759 1065.22 669.685 1063.13C667.61 1061.05 664.911 1059.71 662 1059.31C664.911 1058.91 667.61 1057.56 669.685 1055.48C671.759 1053.4 673.094 1050.7 673.485 1047.79C673.884 1050.7 675.227 1053.41 677.307 1055.49C679.388 1057.57 682.092 1058.91 685.007 1059.31C682.092 1059.71 679.388 1061.05 677.307 1063.13C675.227 1065.21 673.884 1067.92 673.485 1070.83Z" fill="#F4DDB4"/>
<path d="M673.485 1070.83C673.094 1067.92 671.759 1065.22 669.685 1063.13C667.61 1061.05 664.911 1059.71 662 1059.31C664.911 1058.91 667.61 1057.56 669.685 1055.48C671.759 1053.4 673.094 1050.7 673.485 1047.79C673.884 1050.7 675.227 1053.41 677.307 1055.49C679.388 1057.57 682.092 1058.91 685.007 1059.31C682.092 1059.71 679.388 1061.05 677.307 1063.13C675.227 1065.21 673.884 1067.92 673.485 1070.83Z" stroke="#8D6742" stroke-width="2" stroke-miterlimit="10"/>
<path d="M299.336 1059.31C299.336 1057.58 299.85 1055.88 300.813 1054.44C301.776 1053 303.144 1051.88 304.745 1051.21C306.346 1050.55 308.107 1050.38 309.807 1050.72C311.506 1051.05 313.068 1051.89 314.293 1053.11C315.518 1054.34 316.353 1055.9 316.691 1057.6C317.029 1059.3 316.855 1061.06 316.192 1062.66C315.529 1064.26 314.406 1065.63 312.965 1066.59C311.524 1067.56 309.831 1068.07 308.098 1068.07C305.774 1068.07 303.546 1067.15 301.903 1065.5C300.259 1063.86 299.336 1061.63 299.336 1059.31Z" fill="#F3DCB3" stroke="#8D6742" stroke-width="2" stroke-miterlimit="10"/>
<path d="M394.165 1059.31C394.165 1057.58 393.651 1055.88 392.688 1054.44C391.725 1053 390.357 1051.88 388.756 1051.21C387.155 1050.55 385.394 1050.38 383.694 1050.72C381.995 1051.05 380.433 1051.89 379.208 1053.11C377.983 1054.34 377.148 1055.9 376.81 1057.6C376.472 1059.3 376.646 1061.06 377.309 1062.66C377.972 1064.26 379.095 1065.63 380.536 1066.59C381.977 1067.56 383.67 1068.07 385.403 1068.07C387.724 1068.06 389.947 1067.13 391.588 1065.49C393.229 1063.85 394.155 1061.63 394.165 1059.31Z" fill="#F3DCB3" stroke="#8D6742" stroke-width="2" stroke-miterlimit="10"/>
</svg>
