<svg width="76" height="76" viewBox="0 0 76 76" fill="none" xmlns="http://www.w3.org/2000/svg">
<path d="M22 36.5154C22 33.4697 22 31.9469 22.6157 30.6083C23.2313 29.2697 24.3875 28.2787 26.7 26.2966L28.9431 24.3739C33.1228 20.7913 35.2127 19 37.7021 19C40.1915 19 42.2813 20.7913 46.461 24.3739L48.7042 26.2966C51.0166 28.2787 52.1728 29.2697 52.7885 30.6083C53.4042 31.9469 53.4042 33.4697 53.4042 36.5154V46.0272C53.4042 50.257 53.4042 52.3718 52.0901 53.6859C50.7761 54.9999 48.6613 54.9999 44.4315 54.9999H30.9726C26.7429 54.9999 24.628 54.9999 23.314 53.6859C22 52.3718 22 50.257 22 46.0272V36.5154Z" stroke="#F6EAD0" stroke-width="2"/>
<path d="M43.31 55.0002V42.5413C43.31 41.989 42.8623 41.5413 42.31 41.5413H33.0942C32.542 41.5413 32.0942 41.989 32.0942 42.5413V55.0002" stroke="#F6EAD0" stroke-width="2" stroke-linecap="round" stroke-linejoin="round"/>
</svg>
