<svg width="618" height="156" viewBox="0 0 618 156" fill="none" xmlns="http://www.w3.org/2000/svg">
<path d="M25.4354 33.4043C24.043 43.8451 22.7364 53.887 21.5157 63.5303C18.6546 85.4381 17.5101 96.4252 15.164 118.466H14.5918C14.3343 96.8018 14.1054 85.9476 13.4759 64.1949C13.2089 54.6698 12.8751 44.4875 12.4745 33.648C12.074 22.8086 11.6162 12.5968 11.1012 3.01259L0 3.01259C0.515003 9.11161 1.04907 15.447 1.60222 22.0185C2.11723 28.664 2.63224 35.1322 3.09002 41.5782C3.5478 48.0243 3.94834 53.9166 4.32028 59.2994C5.55057 78.3274 6.06557 87.8083 6.95251 106.726C7.26724 113.991 7.61061 121.877 7.92533 130.383C8.24005 138.889 8.49752 146.908 8.6978 154.418L17.9106 152.978C18.8643 145.343 19.8848 137.324 20.9721 128.921C22.0879 120.504 23.1751 112.618 24.2051 105.219C26.8946 86.2577 28.2965 76.799 31.2721 57.9482C32.1304 52.4103 33.0841 46.555 34.1332 40.3821C35.1823 34.2092 36.2314 27.9108 37.2805 21.4869C38.3677 15.0926 39.4454 8.89751 40.5135 2.90186L29.6985 2.90186C28.2489 12.7814 26.8278 22.9489 25.4354 33.4043Z" fill="#B48495"/>
<path d="M44.0617 26.6924C43.356 34.3716 42.5358 42.9885 41.6012 52.5432C39.6842 72.6567 38.7401 82.7134 36.8231 102.827L34.3339 127.969C33.6473 135.434 32.9034 143.165 32.1309 151.117L40.1134 150.12C41.0099 142.205 41.8682 134.533 42.6884 127.105C43.5086 119.677 44.4623 111.355 45.5495 102.14C47.7526 82.2039 48.8685 72.1694 51.1001 52.2109C52.1492 42.7006 53.1029 34.1353 53.9613 26.5153C54.791 18.873 55.6779 11.0093 56.5649 2.99045L46.3221 2.99045C45.54 11.1126 44.7866 19.0133 44.0617 26.6924Z" fill="#B48495"/>
<path d="M79.7684 72.5237C78.3983 68.8111 76.315 65.2792 73.5884 62.0462C72.1858 60.4141 70.9973 58.6777 70.0406 56.8627C69.1217 54.9647 68.5721 52.9714 68.4098 50.9483C68.2286 48.1472 68.3435 45.3394 68.7531 42.5529C69.0771 39.6827 69.7476 36.8423 70.7559 34.0689C71.3659 32.2617 72.3829 30.552 73.7601 29.0184C74.1493 28.5537 74.6668 28.1616 75.2754 27.8705C75.8839 27.5794 76.5683 27.3964 77.2792 27.3349C77.934 27.3707 78.5721 27.5113 79.1532 27.7477C79.7343 27.9841 80.2458 28.3111 80.6554 28.7082C82.077 29.9097 83.2279 31.2875 84.0601 32.7841C85.296 34.9203 86.2544 37.1464 86.9213 39.4295C89.0385 27.7336 90.0685 21.8635 92.1857 10.1675C91.5869 8.83507 90.8203 7.55147 89.8968 6.33528C89.0355 5.17325 87.9982 4.09501 86.8068 3.12336C85.7338 2.2492 84.4997 1.50274 83.1445 0.908219C81.9442 0.34714 80.5697 0.0485439 79.1676 0.044281C75.7056 0.044281 72.587 1.8829 69.8403 5.56003C66.5882 10.3995 64.2561 15.5774 62.9164 20.9331C60.8321 28.4064 59.3699 35.9756 58.5389 43.594C57.5795 50.5531 57.1781 57.5517 57.3372 64.5493C57.4159 68.9817 58.1747 73.3912 59.5975 77.6851C60.689 80.7554 62.367 83.6821 64.5759 86.3684C66.022 88.0453 67.2761 89.8167 68.3239 91.6626C69.3987 93.6755 70.0647 95.8051 70.2981 97.9758C70.5964 101.078 70.4718 104.197 69.9262 107.279C69.5339 110.366 68.8356 113.424 67.8376 116.428C67.2439 118.325 66.279 120.14 64.9764 121.811C64.6216 122.322 64.1244 122.767 63.5208 123.112C62.9171 123.456 62.2221 123.693 61.4858 123.804C60.802 123.836 60.118 123.744 59.4876 123.537C58.8571 123.329 58.2974 123.011 57.8522 122.608C56.4225 121.44 55.2613 120.092 54.4189 118.621C53.2165 116.52 52.259 114.341 51.5577 112.108C49.8697 124.004 49.0113 129.94 47.3232 141.836C47.9518 143.447 48.8666 144.983 50.0413 146.399C51.0746 147.696 52.4141 148.83 53.9897 149.744C54.619 150.127 55.3397 150.41 56.1105 150.577C56.8812 150.744 57.6869 150.792 58.4817 150.718C61.8006 150.364 64.8334 148.237 67.5228 144.405C70.7868 139.416 73.2099 134.123 74.7328 128.655C77.0293 121.03 78.7584 113.309 79.9115 105.529C81.0132 98.9975 81.6436 92.423 81.7998 85.8368C81.9299 81.3474 81.2462 76.8661 79.7684 72.5237Z" fill="#B48495"/>
<path d="M124.373 25.4299C123.095 32.8137 121.665 41.0318 120.081 50.0843L113.501 87.8968C112.299 94.6899 111.031 100.479 109.696 105.264C108.731 109.07 107.234 112.784 105.232 116.339C103.601 118.909 101.856 120.282 99.9105 120.393C97.965 120.504 96.7061 119.374 95.9622 116.915C95.1068 113.352 94.8568 109.718 95.2183 106.105C95.4853 101.365 96.1815 95.5907 97.3069 88.7829C99.8533 73.4984 101.141 65.834 103.687 50.5496C105.232 41.3641 106.615 33.0721 107.836 25.6735C109.066 18.2971 110.354 10.6991 111.641 2.924L101.599 2.924C100.368 10.7656 99.138 18.43 97.9364 25.8286C96.7347 33.2271 95.39 41.6004 93.9308 50.8154C93.0725 56.0431 92.2332 61.2487 91.413 66.4321C90.5833 71.6377 89.8108 76.3781 89.1241 80.6976C88.4374 85.0171 87.8652 88.4728 87.4647 91.0866C85.7279 101.221 84.6489 111.416 84.2316 121.633C83.6929 128.202 84.4356 134.796 86.4347 141.193C88.1513 145.623 91.0983 147.684 95.3328 147.329C99.5672 146.975 103.115 144.427 106.548 139.62C110.744 133.31 113.878 126.61 115.876 119.684C118.974 109.707 121.362 99.6054 123.028 89.4253L124.802 79.3685C125.546 75.1154 126.376 70.4046 127.292 65.236C128.207 60.0968 129.094 54.9577 130.153 49.8407C131.755 40.7881 133.195 32.6069 134.473 25.2969C135.76 18.0091 137.077 10.5441 138.421 2.85754H128.379C126.948 10.5884 125.632 18.1199 124.373 25.4299Z" fill="#B48495"/>
<path d="M163.084 94.1436C164.257 75.2484 164.858 65.7898 166.117 46.8281C166.661 38.4328 167.147 30.8126 167.634 23.9679C168.12 17.1231 168.578 10.0567 169.093 2.8132L156.103 2.8132C154.196 9.82782 152.288 16.8203 150.381 23.7906C148.474 30.7609 146.29 38.5804 143.829 47.249L130.239 95.2511C128.141 102.738 125.938 110.668 123.63 119.042C121.322 127.415 119.109 135.39 116.992 142.965C121.054 142.699 123.086 142.544 127.235 142.301C129.142 134.917 131.202 127.223 133.415 119.219C133.987 117.115 134.53 115.077 135.103 112.994C141.54 112.662 144.802 112.507 151.382 112.219C151.382 114.301 151.068 116.317 150.896 118.466C150.305 126.16 149.723 133.669 149.151 140.994L160.366 140.418C160.767 133.123 161.206 125.466 161.682 117.447C162.159 109.428 162.627 101.66 163.084 94.1436ZM158.135 29.9044C156.161 53.3628 155.274 65.0588 153.328 88.4285C148.607 88.5836 146.261 88.6721 141.626 88.8715C147.949 65.2138 151.125 53.4292 157.391 29.9044H158.135Z" fill="#B48495"/>
<path d="M193.584 111.776L187.404 111.975L181.853 112.153C182.912 105.507 184.056 98.153 185.315 90.0012C187.919 73.432 189.206 65.1695 191.781 48.6002C193.155 39.7397 194.394 31.7725 195.501 24.6988L198.934 2.8132L188.834 2.8132C187.594 10.3152 186.402 17.6399 185.258 24.7874C184.113 31.935 182.807 39.9169 181.338 48.7331C178.277 67.3846 176.76 76.7325 173.728 95.384C172.326 104.001 171.067 111.754 169.922 118.709C168.778 125.665 167.633 132.798 166.432 140.196C179.335 139.576 185.973 139.31 199.478 138.845C200.994 127.88 201.767 122.409 203.283 111.444L198.533 111.599L193.584 111.776Z" fill="#B48495"/>
<path d="M262.337 6.80051C261.516 5.58524 260.283 4.56584 258.771 3.8517C257.259 3.13756 255.524 2.75558 253.753 2.74677L236.157 2.74677C235.27 10.1675 234.441 17.3889 233.611 24.4109C232.781 31.4329 231.837 39.3188 230.75 48.0686L225.314 94.055C224.303 102.546 223.397 110.203 222.596 117.026C221.794 123.849 221.031 130.915 220.307 138.225L232.066 137.915C232.848 130.649 233.592 123.605 234.298 116.782L236.701 93.8334L237.044 90.5329H238.79H242.538H246.143C250.415 90.5329 254.011 88.5836 256.929 84.6849C260.323 79.7085 262.606 74.3237 263.681 68.7581C265.456 60.9959 266.574 53.1524 267.029 45.2775C267.806 36.9669 267.806 28.6236 267.029 20.3129C266.756 15.5978 265.155 10.9858 262.337 6.80051ZM253.982 57.7488C253.456 60.1643 252.318 62.4754 250.635 64.5493C250.113 65.2034 249.391 65.7477 248.532 66.1341C247.674 66.5205 246.706 66.737 245.713 66.7644H239.39C239.991 61.1823 240.277 58.3912 240.878 52.8312C241.794 44.1035 242.623 36.2324 243.367 29.2177L243.568 27.1355H250.72C251.607 27.1547 252.448 27.4407 253.067 27.9329C254.004 28.7239 254.673 29.6831 255.012 30.724C255.656 32.568 256.02 34.4636 256.099 36.3727C256.267 39.5263 256.19 42.6848 255.87 45.8313C255.614 49.8266 254.983 53.8021 253.982 57.7266V57.7488Z" fill="#B48495"/>
<path d="M288.974 111.732H281.506V111.134C281.792 104.311 282.116 96.7205 282.479 88.3621C282.479 85.4602 282.651 83.9317 282.794 81.0963H303.68C303.68 71.682 303.68 66.9859 303.88 57.5494H283.852L284.052 52.5432C284.415 43.8746 284.749 36.0552 285.054 29.0848V28.0437H305.082C305.082 17.8984 305.082 12.8478 305.253 2.70248L276.099 2.70248C275.669 10.0789 275.24 17.2338 274.811 24.2115C274.382 31.1892 273.953 39.0308 273.409 47.7142L270.691 93.3682C270.176 101.808 269.747 109.406 269.318 116.206C268.889 123.007 268.517 130.007 268.087 137.25C282.393 137.073 289.832 137.007 304.624 136.984C304.624 126.861 304.624 121.789 304.796 111.665H288.974V111.732Z" fill="#B48495"/>
<path d="M351.146 111.488C349.601 106.726 348.285 102.273 346.883 98.1972C344.622 91.0202 343.506 87.4317 341.332 80.2546C342.497 79.3482 343.464 78.3006 344.193 77.1534C346.792 72.5333 348.295 67.5883 348.628 62.5556C349.33 55.62 349.406 48.6549 348.857 41.7111C348.527 33.9394 347.35 26.2032 345.338 18.5851C344.397 14.2157 342.197 10.0666 338.9 6.44607C337.821 5.33418 336.426 4.42857 334.824 3.79882C333.222 3.16907 331.455 2.83191 329.659 2.8132L312.807 2.8132C312.807 10.197 312.864 17.3519 312.978 24.2779C313.093 31.2039 313.15 39.0234 313.15 47.7363C313.15 65.9669 313.35 75.0933 313.465 93.324C313.465 101.727 313.522 109.317 313.636 116.096C313.751 122.874 313.808 129.874 313.808 137.095H326.254C326.082 129.874 325.882 122.874 325.71 116.096C325.539 109.317 325.338 101.719 325.109 93.3018L324.966 87.5424H331.061C333.292 95.6498 334.437 99.7035 336.783 107.833C338.099 112.418 339.644 117.137 340.989 121.988C342.333 126.839 344.022 131.912 345.652 137.206L359.701 137.405C358.527 133.927 357.183 129.918 355.695 125.421C354.207 120.925 352.691 116.251 351.146 111.488ZM324.079 52.5653C323.851 44.074 323.65 36.3653 323.479 29.4393V27.0248H330.345C331.235 27.0435 332.095 27.2757 332.806 27.6893C333.867 28.3884 334.659 29.3005 335.095 30.3253C335.973 32.1042 336.588 33.9546 336.926 35.841C338.179 42.954 338.419 50.1521 337.641 57.3057C337.477 59.5164 336.612 61.6617 335.123 63.5524C334.621 64.1194 333.945 64.5817 333.157 64.8985C332.368 65.2153 331.491 65.3769 330.603 65.3689H324.48C324.28 60.2519 324.222 57.5937 324.079 52.5653Z" fill="#B48495"/>
<path d="M371.746 31.5879C373.434 28.2209 375.552 26.5374 378.127 26.5595C379.663 26.64 381.127 27.0979 382.304 27.8664C384.178 29.0475 385.817 30.4358 387.168 31.9866C389.32 34.3652 391.233 36.8683 392.89 39.4738C391.746 27.8443 391.173 22.0185 390.029 10.3668C389.001 8.99388 387.854 7.67654 386.596 6.42388C385.404 5.23137 384.073 4.12653 382.619 3.12334C381.324 2.25883 379.903 1.51533 378.384 0.908202C377.057 0.373694 375.588 0.0855027 374.093 0.0664368C369.458 0.0664368 365.795 3.1012 362.991 9.14853C359.688 17.2492 357.764 25.6491 357.269 34.1353C356.233 46.1576 356.233 58.2199 357.269 70.2421C357.922 79.7657 359.26 89.2539 361.275 98.6625C362.837 106.195 365.249 113.608 368.485 120.814C370.696 126.053 374.065 130.954 378.441 135.301C379.832 136.793 381.618 138.037 383.681 138.95C385.744 139.864 388.035 140.424 390.401 140.595C393.399 140.69 396.354 140.021 398.813 138.69C400.175 137.944 401.381 137.04 402.389 136.01C403.552 134.809 404.514 133.499 405.25 132.111C403.534 120.592 402.704 114.855 400.987 103.314C400.309 105.225 399.439 107.091 398.383 108.896C397.664 110.189 396.7 111.391 395.522 112.463C394.65 113.24 393.591 113.88 392.404 114.346C391.384 114.716 390.268 114.898 389.142 114.877C387.624 114.759 386.162 114.367 384.875 113.732C383.588 113.097 382.512 112.238 381.732 111.222C379.096 108.234 377.079 104.945 375.752 101.476C373.876 96.83 372.442 92.0843 371.46 87.2766C370.316 81.9307 369.477 76.2674 368.943 70.2865C368.105 62.3433 367.961 54.3654 368.513 46.4072C368.679 41.3739 369.768 36.3843 371.746 31.5879Z" fill="#B48495"/>
<path d="M428.826 113.615L421.93 113.393V112.773L418.583 89.6911C418.182 86.7449 417.953 85.2609 417.524 82.3369L423.676 82.4698L430.943 82.6691L437.008 82.8242C435.463 73.2105 434.691 68.4036 433.174 58.7677H427.452L420.185 58.6348L414.148 58.5241L413.433 53.4736C412.136 44.613 410.982 36.6754 409.971 29.6608L409.828 28.5975H415.55H423.361H429.541L425.392 2.72464L396.037 2.72464C397.039 10.1454 398.011 17.411 398.898 24.4552L402.074 48.2015C404.563 66.6536 405.822 75.8908 408.311 94.3429C409.456 102.864 410.486 110.558 411.401 117.425C412.317 124.292 413.271 131.373 414.262 138.668C427.796 139.133 434.433 139.399 447.337 139.975L443.188 114.102L436.35 113.836L428.826 113.615Z" fill="#B48495"/>
<path d="M459.841 7.02203C458.774 5.78778 457.349 4.76416 455.68 4.03326C454.01 3.30236 452.143 2.88447 450.227 2.8132L432.688 2.8132C433.909 10.3447 435.12 17.6769 436.322 24.8096L440.27 48.7331L447.995 95.4505C449.426 104.067 450.685 111.843 451.858 118.798C453.031 125.754 454.176 132.909 455.406 140.307C459.726 140.529 461.872 140.617 466.135 140.861C464.848 133.418 463.646 126.219 462.444 119.263C461.242 112.308 459.926 104.466 458.467 95.8049L457.895 92.4157H459.469H462.959L466.278 92.5486C470.169 92.7037 472.916 90.8651 474.575 87.0108C476.443 81.7271 477.178 76.2418 476.75 70.7738C476.385 62.6534 475.43 54.5552 473.889 46.518C472.497 37.7818 470.375 29.1246 467.537 20.6008C466.055 15.7509 463.447 11.15 459.841 7.02203ZM465.076 59.4544C465.248 61.7962 464.8 64.1404 463.76 66.3435C463.458 66.9822 462.902 67.53 462.172 67.9082C461.442 68.2863 460.575 68.4753 459.698 68.4479L453.746 68.2928C452.802 62.5999 452.316 59.7424 451.343 54.0495C449.836 45.1889 448.463 37.148 447.223 29.9266L446.88 27.7114H453.861C454.781 27.7821 455.646 28.0857 456.321 28.5753C457.442 29.3954 458.338 30.3824 458.954 31.4772C460.043 33.3587 460.895 35.3171 461.5 37.3252C463.617 44.5418 464.815 51.9017 465.076 59.2993V59.4544Z" fill="#B48495"/>
<path d="M474.718 31.012H479.811L485.934 31.1227H487.908C489.167 38.2555 490.569 46.1857 492.114 55.0019C494.975 72.0364 496.606 80.5647 499.581 97.6213C501.126 106.482 502.442 114.39 503.787 121.478C505.132 128.567 506.305 135.921 507.65 143.475L517.435 144.206C516.119 136.615 514.85 129.231 513.629 122.054C512.409 114.877 511.026 106.881 509.481 98.0643C506.62 80.9413 505.017 72.3687 502.071 55.2235C500.526 46.3629 499.209 38.4106 497.922 31.2335H499.867H505.962H510.94C509.023 19.7812 508.079 14.044 506.133 2.59174L469.74 2.59174C471.743 14.0883 472.715 19.7148 474.718 31.012Z" fill="#B48495"/>
<path d="M515.947 25.7399C517.149 33.1238 518.503 41.4379 520.01 50.6825C523.186 70.0871 524.759 79.7673 527.935 99.1719C529.385 108.121 530.71 116.199 531.912 123.406C533.085 130.627 534.315 138.07 535.546 145.756L544.873 146.598C543.671 138.86 542.508 131.373 541.382 124.137C540.257 116.9 538.989 108.778 537.577 99.7701C534.544 80.2546 532.999 70.508 529.966 51.0369C528.517 41.7776 527.21 33.4191 526.047 25.9615C524.902 18.4964 523.701 10.8542 522.47 2.99045L512.142 2.99045C513.486 10.7213 514.717 18.3192 515.947 25.7399Z" fill="#B48495"/>
<path d="M570.651 22.4837C568.821 16.6801 565.93 11.1084 562.068 5.93657C558.806 1.97146 555.23 0 551.453 0C546.446 0 542.698 3.36699 540.352 10.0789C537.681 18.9393 536.518 28.0319 536.89 37.1258C537.048 49.8413 538.137 62.5397 540.152 75.1598C541.64 85.0541 543.471 94.5201 545.645 103.558C547.82 112.596 550.232 120.681 552.884 127.814C554.949 133.756 557.827 139.511 561.467 144.981C564.443 149.278 567.533 151.619 570.737 152.003C574.686 152.446 577.489 149.522 579.321 143.143C581.568 134.345 582.679 125.396 582.64 116.428C582.954 104.998 582.496 91.8619 581.152 77.0869C580.217 66.4099 578.882 56.4123 577.146 47.094C575.636 38.795 573.467 30.576 570.651 22.4837ZM573.112 94.9632C573.312 100.767 573.255 105.884 572.912 110.358C572.768 113.867 572.115 117.352 570.966 120.747C569.993 123.206 568.677 124.358 566.961 124.181C565.244 124.004 563.556 122.608 561.896 119.95C559.878 116.48 558.297 112.867 557.175 109.162C555.688 104.732 554.314 99.5042 553.027 93.6562C551.739 87.8082 550.709 81.7831 549.794 75.337C548.878 68.891 548.306 62.7993 547.991 57.0399C547.656 51.9558 547.656 46.8617 547.991 41.7776C548.152 38.2527 548.912 34.7597 550.252 31.3886C551.367 28.9076 552.912 27.6672 554.829 27.7115C556.746 27.7558 558.492 28.9962 560.208 31.4993C562.298 34.813 563.901 38.2979 564.986 41.8884C566.436 46.3186 567.733 51.4873 568.877 57.3943C570.022 63.2866 570.937 69.6662 571.739 76.4889C572.463 83.09 572.921 89.2481 573.112 94.9632Z" fill="#B48495"/>
<path d="M608.619 3.07907C608.79 11.3932 608.971 19.5154 609.162 27.4456C609.353 35.3758 609.544 44.2364 609.734 54.0273C610.106 70.8181 610.307 79.1913 610.679 95.9821H610.106C607.531 81.4951 606.101 74.2737 603.068 59.9196C601.161 50.6603 599.101 41.4527 596.888 32.2967C594.675 23.1408 592.262 13.4533 589.649 3.23408L581.066 3.23408C581.695 11.3858 582.315 19.3234 582.926 27.0469C583.536 34.7703 584.223 43.4463 584.986 53.0748L588.991 103.647C589.735 112.994 590.403 121.427 590.994 128.943C591.595 136.475 592.224 144.228 592.854 152.247L599.635 153.199C599.158 145.166 598.681 137.354 598.204 129.763C597.727 122.172 597.155 113.622 596.487 104.112C595.429 86.9 594.914 78.3052 593.855 61.0936H594.485C597.861 75.5142 599.463 82.7577 602.41 97.3334C604.67 108.409 606.559 118.532 608.132 127.902C609.706 137.272 611.165 146.288 612.424 154.994L617.946 155.946V3.10118L608.619 3.07907Z" fill="#B48495"/>
</svg>
