<svg width="834" height="834" viewBox="0 0 834 834" fill="none" xmlns="http://www.w3.org/2000/svg">
<g clip-path="url(#clip0_7_111)">
<rect width="834" height="834" fill="white"/>
<rect width="834" height="1194" fill="#D06224"/>
<circle cx="313.04" cy="209.079" r="42.0792" fill="#AE431E"/>
<circle cx="520.961" cy="209.079" r="42.0792" fill="#AE431E"/>
<circle cx="624.921" cy="209.079" r="42.0792" fill="#AE431E"/>
<circle cx="209.079" cy="313.04" r="42.0792" fill="#AE431E"/>
<circle cx="313.04" cy="313.04" r="42.0792" fill="#AE431E"/>
<circle cx="417" cy="313.04" r="42.0792" fill="#AE431E"/>
<circle cx="520.961" cy="313.04" r="42.0792" fill="#AE431E"/>
<circle cx="209.079" cy="417" r="42.0792" fill="#AE431E"/>
<circle cx="417" cy="417" r="42.0792" fill="#AE431E"/>
<circle cx="520.961" cy="417" r="42.0792" fill="#AE431E"/>
<circle cx="624.921" cy="417" r="42.0792" fill="#AE431E"/>
<circle cx="209.079" cy="520.96" r="42.0792" fill="#AE431E"/>
<circle cx="417" cy="520.96" r="42.0792" fill="#AE431E"/>
<circle cx="624.921" cy="520.96" r="42.0792" fill="#AE431E"/>
<circle cx="209.079" cy="624.921" r="42.0792" fill="#AE431E"/>
<circle cx="417" cy="624.921" r="42.0792" fill="#AE431E"/>
<circle cx="209.079" cy="209.079" r="42.0792" fill="#AE431E"/>
<circle cx="417" cy="209.079" r="42.0792" fill="#AE431E"/>
<circle cx="624.921" cy="313.04" r="42.0792" fill="#AE431E"/>
<circle cx="313.04" cy="417" r="42.0792" fill="#AE431E"/>
<circle cx="313.04" cy="520.96" r="42.0792" fill="#AE431E"/>
<circle cx="520.961" cy="520.96" r="42.0792" fill="#AE431E"/>
<circle cx="313.04" cy="624.921" r="42.0792" fill="#AE431E"/>
<circle cx="520.961" cy="624.921" r="42.0792" fill="#AE431E"/>
<circle cx="624.921" cy="624.921" r="42.0792" fill="#AE431E"/>
<circle cx="209.079" cy="209.079" r="42.0792" fill="#E9C891"/>
<circle cx="417" cy="209.079" r="42.0792" fill="#E9C891"/>
<circle cx="624.921" cy="313.04" r="42.0792" fill="#E9C891"/>
<circle cx="313.04" cy="417" r="42.0792" fill="#E9C891"/>
<circle cx="313.04" cy="520.96" r="42.0792" fill="#E9C891"/>
<circle cx="520.961" cy="520.96" r="42.0792" fill="#E9C891"/>
<circle cx="313.04" cy="624.921" r="42.0792" fill="#E9C891"/>
<circle cx="520.961" cy="624.921" r="42.0792" fill="#E9C891"/>
<circle cx="624.921" cy="624.921" r="42.0792" fill="#E9C891"/>
</g>
<defs>
<clipPath id="clip0_7_111">
<rect width="834" height="834" fill="white"/>
</clipPath>
</defs>
</svg>
