<svg width="834" height="703" viewBox="0 0 834 703" fill="none" xmlns="http://www.w3.org/2000/svg">
<g clip-path="url(#clip0_126_86)">
<path d="M555.629 524.125C528.161 520.579 494.216 533.026 472.397 511.597C450.686 494.497 479.046 470.719 469.857 451.423C463.379 442.423 454.488 437.23 466.659 428.023C473.361 420.445 449.443 416.035 459.344 405.433C465.217 397.27 475.559 376.813 458.848 375.85C393.409 364.654 477.289 302.383 489.928 275.374C492.351 268.012 485.325 260.074 487.739 251.785C494.559 188.65 545.097 142.147 604.753 127H229.991C289.638 142.147 340.176 188.65 346.996 251.776C349.41 260.029 342.384 267.976 344.807 275.365C357.419 302.365 441.326 364.645 375.887 375.841C359.158 376.804 369.518 397.261 375.391 405.424C385.301 416.026 361.374 420.436 368.076 428.014C380.247 437.23 371.356 442.414 364.878 451.414C355.689 470.71 384.049 494.461 362.338 511.588C340.519 533.017 306.574 520.588 279.106 524.116C276.316 524.481 273.65 525.497 271.325 527.08C269 528.664 267.08 530.771 265.719 533.233C258.035 547.102 251.792 565.507 257.107 577C310.505 576.964 363.896 576.946 417.282 576.946H417.462C470.86 576.946 524.251 576.964 577.637 577C582.952 565.507 576.736 547.102 569.015 533.242C567.655 530.78 565.735 528.673 563.41 527.089C561.084 525.505 558.419 524.49 555.629 524.125Z" fill="#010101"/>
</g>
<defs>
<clipPath id="clip0_126_86">
<rect width="374.744" height="450" fill="white" transform="translate(230 127)"/>
</clipPath>
</defs>
</svg>
