<svg width="66" height="66" viewBox="0 0 66 66" fill="none" xmlns="http://www.w3.org/2000/svg">
<circle cx="33" cy="33" r="32" stroke="#202020" stroke-width="2"/>
<path d="M49.9028 33.7317L50.6099 34.4388L51.317 33.7317L50.6099 33.0246L49.9028 33.7317ZM16.098 32.7317C15.5457 32.7317 15.098 33.1794 15.098 33.7317C15.098 34.284 15.5457 34.7317 16.098 34.7317L16.098 32.7317ZM39.3417 45.7071L50.6099 34.4388L49.1957 33.0246L37.9274 44.2929L39.3417 45.7071ZM50.6099 33.0246L39.3416 21.7563L37.9274 23.1705L49.1957 34.4388L50.6099 33.0246ZM49.9028 32.7317L16.098 32.7317L16.098 34.7317L49.9028 34.7317L49.9028 32.7317Z" fill="#202020"/>
</svg>
