<svg width="834" height="834" viewBox="0 0 834 834" fill="none" xmlns="http://www.w3.org/2000/svg">
<rect width="834" height="834" fill="#655D8A"/>
<rect x="119" y="192" width="596.45" height="204.142" fill="#7897AB"/>
<circle cx="177.135" cy="253.686" r="28.8462" fill="#D885A3"/>
<circle cx="272.995" cy="253.686" r="28.8462" fill="#FDCEB9"/>
<circle cx="369.741" cy="253.686" r="28.8462" fill="#FDCEB9"/>
<circle cx="464.709" cy="253.686" r="28.8462" fill="#FDCEB9"/>
<circle cx="561.456" cy="253.686" r="28.8462" fill="#FDCEB9"/>
<circle cx="657.315" cy="253.686" r="28.8462" fill="#FDCEB9"/>
<circle cx="177.135" cy="335.343" r="28.8462" fill="#D885A3"/>
<circle cx="272.995" cy="335.343" r="28.8462" fill="#FDCEB9"/>
<circle cx="369.741" cy="335.343" r="28.8462" fill="#FDCEB9"/>
<circle cx="464.709" cy="335.343" r="28.8462" fill="#FDCEB9"/>
<circle cx="561.456" cy="335.343" r="28.8462" fill="#FDCEB9"/>
<circle cx="657.313" cy="335.343" r="28.8462" fill="#FDCEB9"/>
<rect x="119" y="438" width="596" height="204" fill="#7897AB"/>
<circle cx="204.846" cy="499.544" r="28.8462" fill="#FDCEB9"/>
<circle cx="204.846" cy="581.201" r="28.8462" fill="#FDCEB9"/>
<circle cx="311.592" cy="499.544" r="28.8462" fill="#FDCEB9"/>
<circle cx="311.592" cy="581.201" r="28.8462" fill="#FDCEB9"/>
<circle cx="416.561" cy="499.544" r="28.8462" fill="#FDCEB9"/>
<circle cx="416.561" cy="581.201" r="28.8462" fill="#FDCEB9"/>
<circle cx="523.307" cy="499.544" r="28.8462" fill="#FDCEB9"/>
<circle cx="523.307" cy="581.201" r="28.8462" fill="#FDCEB9"/>
<circle cx="629.166" cy="499.544" r="28.8462" fill="#FDCEB9"/>
<circle cx="629.166" cy="581.201" r="28.8462" fill="#FDCEB9"/>
</svg>
