<svg width="834" height="834" viewBox="0 0 834 834" fill="none" xmlns="http://www.w3.org/2000/svg">
<g clip-path="url(#clip0_28_16)">
<rect width="834" height="834" fill="#ECDBBA"/>
<rect width="834" height="834" fill="#F9DFDC"/>
<path d="M722.726 364.799V411.89L704.205 417.853L670.114 428.809L547.908 468.126L273.365 556.515C279.243 554.408 283.689 544.842 283.689 533.464C283.689 521.012 278.38 510.835 271.658 509.992L548.013 421.035L619.651 397.984L653.742 387.006L722.726 364.799Z" stroke="#0A81AB" stroke-width="2" stroke-miterlimit="10"/>
<path d="M548.014 421.035L619.652 397.984L653.743 387.007L722.706 364.799V364.272L702.057 351.63L651.594 320.805L630.398 307.847L579.935 277L548.014 287.282L510.446 299.376L476.355 310.354L123.916 423.795C130.996 423.942 136.727 434.33 136.727 447.33C136.727 457.338 133.292 465.872 128.446 469.285L526.67 341.116L547.866 334.289L560.74 330.075L581.937 343.033L632.315 373.817L598.287 384.773L547.845 401.018" stroke="#0A81AB" stroke-width="2" stroke-miterlimit="10"/>
<path d="M560.908 350.029V330.244" stroke="#0A81AB" stroke-width="2" stroke-miterlimit="10"/>
<path d="M611.35 380.854L560.908 350.029" stroke="#0A81AB" stroke-width="2" stroke-miterlimit="10"/>
<path d="M548.014 334.395L560.909 330.244L582.105 343.202L632.547 374.028" stroke="#0A81AB" stroke-width="2" stroke-miterlimit="10"/>
<path d="M608 381.929L548.013 401.25L201.032 512.921C206.362 510.013 210.239 500.995 210.239 490.355C210.239 477.713 204.803 467.473 197.977 466.841L560.908 350.029" stroke="#0A81AB" stroke-width="2" stroke-miterlimit="10"/>
<path d="M136.811 447.372C136.811 457.528 133.271 466.188 128.383 469.475C127.077 470.386 125.529 470.885 123.937 470.907V470.907C116.794 470.907 111 460.372 111 447.372C111 437.216 114.54 428.556 119.428 425.27C120.724 424.355 122.267 423.856 123.853 423.837C131.017 423.837 136.811 434.372 136.811 447.372Z" stroke="#0A81AB" stroke-width="2" stroke-miterlimit="10"/>
<path d="M210.303 490.356C210.303 500.891 206.427 510.014 201.096 512.922C200.237 513.402 199.292 513.709 198.315 513.828V513.828H197.472C190.308 513.828 184.514 503.293 184.514 490.271C184.514 480.537 187.758 472.193 192.394 468.611C193.834 467.445 195.619 466.786 197.472 466.736H198.146C204.804 467.474 210.303 477.756 210.303 490.356Z" stroke="#0A81AB" stroke-width="2" stroke-miterlimit="10"/>
<path d="M283.69 533.465C283.69 544.842 279.244 554.324 273.366 556.515L272.734 556.726C272.09 556.911 271.423 557.004 270.753 557C263.589 557 257.795 546.465 257.795 533.465C257.795 523.878 260.934 515.639 265.464 511.973C266.93 510.679 268.799 509.934 270.753 509.866C271.048 509.845 271.343 509.845 271.638 509.866V509.866C278.38 510.835 283.69 521.012 283.69 533.465Z" stroke="#0A81AB" stroke-width="2" stroke-miterlimit="10"/>
</g>
<defs>
<clipPath id="clip0_28_16">
<rect width="834" height="834" fill="white"/>
</clipPath>
</defs>
</svg>
