<svg width="834" height="834" viewBox="0 0 834 834" fill="none" xmlns="http://www.w3.org/2000/svg">
<g clip-path="url(#clip0_8_566)">
<rect width="834" height="834" fill="#F0BB62"/>
<rect width="834" height="834" fill="#EEEBDD"/>
<g clip-path="url(#clip1_8_566)">
<path d="M570.81 608.25C540.29 604.31 502.574 618.14 478.33 594.33C454.207 575.33 485.718 548.91 475.508 527.47C468.311 517.47 458.431 511.7 471.954 501.47C479.401 493.05 452.826 488.15 463.826 476.37C470.353 467.3 481.844 444.57 463.276 443.5C390.566 431.06 483.766 361.87 497.809 331.86C500.502 323.68 492.694 314.86 495.377 305.65C502.954 235.5 559.108 183.83 625.392 167H208.99C275.264 183.83 331.419 235.5 338.996 305.64C341.678 314.81 333.871 323.64 336.563 331.85C350.577 361.85 443.807 431.05 371.097 443.49C352.509 444.56 364.02 467.29 370.546 476.36C381.557 488.14 354.971 493.04 362.418 501.46C375.941 511.7 366.062 517.46 358.865 527.46C348.655 548.9 380.166 575.29 356.042 594.32C331.799 618.13 294.082 604.32 263.563 608.24C260.462 608.646 257.501 609.774 254.917 611.534C252.333 613.293 250.2 615.635 248.689 618.37C240.15 633.78 233.214 654.23 239.119 667C298.45 666.96 357.774 666.94 417.091 666.94H417.291C476.622 666.94 535.946 666.96 595.263 667C601.169 654.23 594.262 633.78 585.684 618.38C584.173 615.645 582.039 613.303 579.456 611.544C576.872 609.784 573.91 608.656 570.81 608.25Z" fill="#010101"/>
</g>
</g>
<defs>
<clipPath id="clip0_8_566">
<rect width="834" height="834" fill="white"/>
</clipPath>
<clipPath id="clip1_8_566">
<rect width="416.382" height="500" fill="white" transform="translate(209 167)"/>
</clipPath>
</defs>
</svg>
