<svg width="97" height="82" viewBox="0 0 97 82" fill="none" xmlns="http://www.w3.org/2000/svg">
<rect x="1" y="1" width="86.8411" height="71.4299" rx="29" fill="#D5CAB3" stroke="#101014" stroke-width="2"/>
<rect x="9.15894" y="9.15894" width="86.8411" height="71.4299" rx="29" fill="#F6EAD0" stroke="#101014" stroke-width="2"/>
<path d="M67.8137 45.5705L68.5208 46.2776L69.2279 45.5705L68.5208 44.8634L67.8137 45.5705ZM37.1682 44.5705C36.6159 44.5705 36.1682 45.0182 36.1682 45.5705C36.1682 46.1227 36.6159 46.5705 37.1682 46.5705L37.1682 44.5705ZM58.3056 56.4928L68.5208 46.2776L67.1066 44.8634L56.8914 55.0785L58.3056 56.4928ZM68.5208 44.8634L58.3056 34.6482L56.8914 36.0624L67.1066 46.2776L68.5208 44.8634ZM67.8137 44.5705L37.1682 44.5705L37.1682 46.5705L67.8137 46.5705L67.8137 44.5705Z" fill="black"/>
</svg>
