<svg width="336" height="336" viewBox="0 0 336 336" fill="none" xmlns="http://www.w3.org/2000/svg">
<path d="M123 154.508C123 152.623 123 151.68 123.586 151.094C124.172 150.508 125.114 150.508 127 150.508H208.355C210.241 150.508 211.184 150.508 211.769 151.094C212.355 151.68 212.355 152.623 212.355 154.508V211.525C212.355 214.353 212.355 215.767 211.477 216.646C210.598 217.525 209.184 217.525 206.355 217.525H129C126.172 217.525 124.757 217.525 123.879 216.646C123 215.767 123 214.353 123 211.525V154.508Z" fill="#7E869E" fill-opacity="0.25" stroke="white" stroke-width="1.2"/>
<path d="M190.017 144.924V127C190.017 122.286 190.017 119.929 188.553 118.464C187.088 117 184.731 117 180.017 117H155.339C150.625 117 148.268 117 146.804 118.464C145.339 119.929 145.339 122.286 145.339 127V144.924" stroke="white" stroke-width="1.2" stroke-linecap="round"/>
<ellipse cx="167.677" cy="184.016" rx="11.1694" ry="11.1694" fill="white"/>
</svg>
