<svg width="834" height="834" viewBox="0 0 834 834" fill="none" xmlns="http://www.w3.org/2000/svg">
<g clip-path="url(#clip0_7_508)">
<rect width="834" height="834" fill="#DB6B97"/>
<rect width="834" height="1194" fill="#DB6B97"/>
<circle cx="244.836" cy="201.836" r="34.8361" fill="#700039"/>
<circle cx="330.902" cy="201.836" r="34.8361" fill="#700039"/>
<circle cx="416.967" cy="201.836" r="34.8361" fill="#700039"/>
<circle cx="503.033" cy="201.836" r="34.8361" fill="#700039"/>
<circle cx="589.098" cy="201.836" r="34.8361" fill="#700039"/>
<circle cx="244.836" cy="373.967" r="34.8361" fill="#700039"/>
<circle cx="330.902" cy="373.967" r="34.8361" fill="#700039"/>
<circle cx="416.967" cy="373.967" r="34.8361" fill="#700039"/>
<circle cx="503.033" cy="373.967" r="34.8361" fill="#700039"/>
<circle cx="589.098" cy="373.967" r="34.8361" fill="#700039"/>
<circle cx="244.836" cy="546.098" r="34.8361" fill="#700039"/>
<circle cx="330.902" cy="546.098" r="34.8361" fill="#700039"/>
<circle cx="416.967" cy="546.098" r="34.8361" fill="#700039"/>
<circle cx="503.033" cy="546.098" r="34.8361" fill="#700039"/>
<circle cx="589.098" cy="546.098" r="34.8361" fill="#700039"/>
<rect x="213" y="256.066" width="63.6721" height="63.6721" stroke="#F4F1D3" stroke-width="6"/>
<rect x="299.066" y="256.066" width="63.6721" height="63.6721" stroke="#F4F1D3" stroke-width="6"/>
<rect x="385.131" y="256.066" width="63.6721" height="63.6721" stroke="#F4F1D3" stroke-width="6"/>
<rect x="471.197" y="256.066" width="63.6721" height="63.6721" stroke="#F4F1D3" stroke-width="6"/>
<rect x="557.262" y="256.066" width="63.6721" height="63.6721" stroke="#F4F1D3" stroke-width="6"/>
<rect x="213" y="428.197" width="63.6721" height="63.6721" stroke="#F4F1D3" stroke-width="6"/>
<rect x="213" y="600.328" width="63.6721" height="63.6721" stroke="#F4F1D3" stroke-width="6"/>
<rect x="299.066" y="428.197" width="63.6721" height="63.6721" stroke="#F4F1D3" stroke-width="6"/>
<rect x="299.066" y="600.328" width="63.6721" height="63.6721" stroke="#F4F1D3" stroke-width="6"/>
<rect x="385.131" y="428.197" width="63.6721" height="63.6721" stroke="#F4F1D3" stroke-width="6"/>
<rect x="385.131" y="600.328" width="63.6721" height="63.6721" stroke="#F4F1D3" stroke-width="6"/>
<rect x="471.197" y="428.197" width="63.6721" height="63.6721" stroke="#F4F1D3" stroke-width="6"/>
<rect x="471.197" y="600.328" width="63.6721" height="63.6721" stroke="#F4F1D3" stroke-width="6"/>
<rect x="557.262" y="428.197" width="63.6721" height="63.6721" stroke="#F4F1D3" stroke-width="6"/>
<rect x="557.262" y="600.328" width="63.6721" height="63.6721" stroke="#F4F1D3" stroke-width="6"/>
</g>
<defs>
<clipPath id="clip0_7_508">
<rect width="834" height="834" fill="white"/>
</clipPath>
</defs>
</svg>
