<svg width="834" height="703" viewBox="0 0 834 703" fill="none" xmlns="http://www.w3.org/2000/svg">
<path d="M722.725 289.799V336.89L704.204 342.853L670.113 353.809L547.907 393.126L273.364 481.515C279.242 479.408 283.688 469.842 283.688 458.464C283.688 446.012 278.379 435.835 271.657 434.992L548.012 346.035L619.65 322.984L653.741 312.006L722.725 289.799Z" stroke="#0A81AB" stroke-width="2" stroke-miterlimit="10"/>
<path d="M548.014 346.035L619.652 322.984L653.743 312.007L722.706 289.799V289.272L702.057 276.63L651.594 245.805L630.398 232.847L579.935 202L548.014 212.282L510.446 224.376L476.355 235.354L123.916 348.795C130.996 348.942 136.727 359.33 136.727 372.33C136.727 382.338 133.292 390.872 128.446 394.285L526.67 266.116L547.866 259.289L560.74 255.075L581.937 268.033L632.315 298.817L598.287 309.773L547.845 326.018" stroke="#0A81AB" stroke-width="2" stroke-miterlimit="10"/>
<path d="M560.908 275.029V255.244" stroke="#0A81AB" stroke-width="2" stroke-miterlimit="10"/>
<path d="M611.35 305.854L560.908 275.029" stroke="#0A81AB" stroke-width="2" stroke-miterlimit="10"/>
<path d="M548.015 259.395L560.91 255.244L582.106 268.202L632.548 299.028" stroke="#0A81AB" stroke-width="2" stroke-miterlimit="10"/>
<path d="M608.001 306.929L548.014 326.25L201.033 437.921C206.363 435.013 210.24 425.995 210.24 415.355C210.24 402.713 204.804 392.473 197.978 391.841L560.909 275.029" stroke="#0A81AB" stroke-width="2" stroke-miterlimit="10"/>
<path d="M136.811 372.372C136.811 382.528 133.271 391.187 128.383 394.474C127.077 395.386 125.529 395.885 123.937 395.907V395.907C116.794 395.907 111 385.372 111 372.372C111 362.216 114.54 353.556 119.428 350.269C120.724 349.355 122.267 348.856 123.853 348.837C131.017 348.837 136.811 359.372 136.811 372.372Z" stroke="#0A81AB" stroke-width="2" stroke-miterlimit="10"/>
<path d="M210.302 415.356C210.302 425.891 206.426 435.014 201.095 437.922C200.236 438.402 199.291 438.709 198.314 438.828V438.828H197.471C190.307 438.828 184.513 428.293 184.513 415.271C184.513 405.537 187.757 397.193 192.393 393.611C193.833 392.445 195.618 391.786 197.471 391.736H198.145C204.803 392.474 210.302 402.756 210.302 415.356Z" stroke="#0A81AB" stroke-width="2" stroke-miterlimit="10"/>
<path d="M283.689 458.464C283.689 469.842 279.243 479.324 273.365 481.515L272.733 481.726C272.089 481.911 271.422 482.003 270.752 482C263.588 482 257.794 471.465 257.794 458.464C257.794 448.878 260.933 440.639 265.463 436.973C266.929 435.679 268.798 434.934 270.752 434.866C271.047 434.845 271.342 434.845 271.637 434.866V434.866C278.379 435.835 283.689 446.012 283.689 458.464Z" stroke="#0A81AB" stroke-width="2" stroke-miterlimit="10"/>
</svg>
