<svg width="834" height="703" viewBox="0 0 834 703" fill="none" xmlns="http://www.w3.org/2000/svg">
<rect x="119" y="117" width="596.45" height="204.142" fill="#7897AB"/>
<circle cx="177.136" cy="178.686" r="28.8462" fill="#D885A3"/>
<circle cx="272.994" cy="178.686" r="28.8462" fill="#FDCEB9"/>
<circle cx="369.74" cy="178.686" r="28.8462" fill="#FDCEB9"/>
<circle cx="464.71" cy="178.686" r="28.8462" fill="#FDCEB9"/>
<circle cx="561.456" cy="178.686" r="28.8462" fill="#FDCEB9"/>
<circle cx="657.314" cy="178.686" r="28.8462" fill="#FDCEB9"/>
<circle cx="177.136" cy="260.343" r="28.8462" fill="#D885A3"/>
<circle cx="272.994" cy="260.343" r="28.8462" fill="#FDCEB9"/>
<circle cx="369.74" cy="260.343" r="28.8462" fill="#FDCEB9"/>
<circle cx="464.709" cy="260.343" r="28.8462" fill="#FDCEB9"/>
<circle cx="561.456" cy="260.343" r="28.8462" fill="#FDCEB9"/>
<circle cx="657.313" cy="260.343" r="28.8462" fill="#FDCEB9"/>
<rect x="119" y="363" width="596" height="204" fill="#7897AB"/>
<circle cx="204.846" cy="424.544" r="28.8462" fill="#FDCEB9"/>
<circle cx="204.846" cy="506.201" r="28.8462" fill="#FDCEB9"/>
<circle cx="311.591" cy="424.544" r="28.8462" fill="#FDCEB9"/>
<circle cx="311.591" cy="506.201" r="28.8462" fill="#FDCEB9"/>
<circle cx="416.562" cy="424.544" r="28.8462" fill="#FDCEB9"/>
<circle cx="416.562" cy="506.201" r="28.8462" fill="#FDCEB9"/>
<circle cx="523.307" cy="424.544" r="28.8462" fill="#FDCEB9"/>
<circle cx="523.307" cy="506.201" r="28.8462" fill="#FDCEB9"/>
<circle cx="629.165" cy="424.544" r="28.8462" fill="#FDCEB9"/>
<circle cx="629.165" cy="506.201" r="28.8462" fill="#FDCEB9"/>
</svg>
