<svg width="834" height="834" viewBox="0 0 834 834" fill="none" xmlns="http://www.w3.org/2000/svg">
<g clip-path="url(#clip0_7_550)">
<rect width="834" height="834" fill="#F0BB62"/>
<rect width="834" height="1194" fill="#F0BB62"/>
<g clip-path="url(#clip1_7_550)">
<path d="M292 229.5H229.5V292C217.139 292 205.055 288.334 194.777 281.467C184.499 274.599 176.488 264.838 171.758 253.418C167.027 241.997 165.789 229.431 168.201 217.307C170.613 205.183 176.565 194.047 185.306 185.306C194.047 176.565 205.183 170.612 217.307 168.201C229.431 165.789 241.997 167.027 253.418 171.758C264.838 176.488 274.599 184.499 281.467 194.777C288.334 205.055 292 217.139 292 229.5Z" fill="#519259"/>
<path d="M667 229.5C667 246.076 660.415 261.973 648.694 273.694C636.973 285.415 621.076 292 604.5 292V229.5H542C542 212.924 548.585 197.027 560.306 185.306C572.027 173.585 587.924 167 604.5 167C621.076 167 636.973 173.585 648.694 185.306C660.415 197.027 667 212.924 667 229.5Z" fill="#519259"/>
<path d="M292 604.5C292 616.861 288.334 628.945 281.467 639.223C274.599 649.501 264.838 657.512 253.418 662.242C241.997 666.973 229.431 668.211 217.307 665.799C205.183 663.387 194.047 657.435 185.306 648.694C176.565 639.953 170.613 628.817 168.201 616.693C165.789 604.569 167.027 592.003 171.758 580.582C176.488 569.162 184.499 559.401 194.777 552.533C205.055 545.666 217.139 542 229.5 542V604.5H292Z" fill="#519259"/>
<path d="M667 604.5C667 621.076 660.415 636.973 648.694 648.694C636.973 660.415 621.076 667 604.5 667C587.924 667 572.027 660.415 560.306 648.694C548.585 636.973 542 621.076 542 604.5H604.5V542C621.076 542 636.973 548.585 648.694 560.306C660.415 572.027 667 587.924 667 604.5Z" fill="#519259"/>
</g>
</g>
<defs>
<clipPath id="clip0_7_550">
<rect width="834" height="834" fill="white"/>
</clipPath>
<clipPath id="clip1_7_550">
<rect width="500" height="500" fill="white" transform="translate(167 167)"/>
</clipPath>
</defs>
</svg>
