<svg width="834" height="703" viewBox="0 0 834 703" fill="none" xmlns="http://www.w3.org/2000/svg">
<circle cx="244.836" cy="126.836" r="34.8361" fill="#700039"/>
<circle cx="330.902" cy="126.836" r="34.8361" fill="#700039"/>
<circle cx="416.967" cy="126.836" r="34.8361" fill="#700039"/>
<circle cx="503.033" cy="126.836" r="34.8361" fill="#700039"/>
<circle cx="589.098" cy="126.836" r="34.8361" fill="#700039"/>
<circle cx="244.836" cy="298.967" r="34.8361" fill="#700039"/>
<circle cx="330.902" cy="298.967" r="34.8361" fill="#700039"/>
<circle cx="416.967" cy="298.967" r="34.8361" fill="#700039"/>
<circle cx="503.033" cy="298.967" r="34.8361" fill="#700039"/>
<circle cx="589.098" cy="298.967" r="34.8361" fill="#700039"/>
<circle cx="244.836" cy="471.098" r="34.8361" fill="#700039"/>
<circle cx="330.902" cy="471.098" r="34.8361" fill="#700039"/>
<circle cx="416.967" cy="471.098" r="34.8361" fill="#700039"/>
<circle cx="503.033" cy="471.098" r="34.8361" fill="#700039"/>
<circle cx="589.098" cy="471.098" r="34.8361" fill="#700039"/>
<rect x="213" y="181.065" width="63.6721" height="63.6721" stroke="#F4F1D3" stroke-width="6"/>
<rect x="299.066" y="181.065" width="63.6721" height="63.6721" stroke="#F4F1D3" stroke-width="6"/>
<rect x="385.131" y="181.065" width="63.6721" height="63.6721" stroke="#F4F1D3" stroke-width="6"/>
<rect x="471.197" y="181.065" width="63.6721" height="63.6721" stroke="#F4F1D3" stroke-width="6"/>
<rect x="557.262" y="181.065" width="63.6721" height="63.6721" stroke="#F4F1D3" stroke-width="6"/>
<rect x="213" y="353.197" width="63.6721" height="63.6721" stroke="#F4F1D3" stroke-width="6"/>
<rect x="213" y="525.328" width="63.6721" height="63.6721" stroke="#F4F1D3" stroke-width="6"/>
<rect x="299.066" y="353.197" width="63.6721" height="63.6721" stroke="#F4F1D3" stroke-width="6"/>
<rect x="299.066" y="525.328" width="63.6721" height="63.6721" stroke="#F4F1D3" stroke-width="6"/>
<rect x="385.131" y="353.197" width="63.6721" height="63.6721" stroke="#F4F1D3" stroke-width="6"/>
<rect x="385.131" y="525.328" width="63.6721" height="63.6721" stroke="#F4F1D3" stroke-width="6"/>
<rect x="471.197" y="353.197" width="63.6721" height="63.6721" stroke="#F4F1D3" stroke-width="6"/>
<rect x="471.197" y="525.328" width="63.6721" height="63.6721" stroke="#F4F1D3" stroke-width="6"/>
<rect x="557.262" y="353.197" width="63.6721" height="63.6721" stroke="#F4F1D3" stroke-width="6"/>
<rect x="557.262" y="525.328" width="63.6721" height="63.6721" stroke="#F4F1D3" stroke-width="6"/>
</svg>
