<svg width="834" height="703" viewBox="0 0 834 703" fill="none" xmlns="http://www.w3.org/2000/svg">
<g clip-path="url(#clip0_126_87)">
<path d="M304.5 173.25H248.25V229.5C237.125 229.5 226.249 226.201 216.999 220.02C207.749 213.839 200.539 205.054 196.282 194.776C192.024 184.498 190.91 173.188 193.081 162.276C195.251 151.365 200.609 141.342 208.475 133.475C216.342 125.609 226.365 120.251 237.276 118.081C248.188 115.91 259.498 117.024 269.776 121.282C280.054 125.539 288.839 132.749 295.02 141.999C301.201 151.249 304.5 162.125 304.5 173.25Z" fill="#519259"/>
<path d="M642 173.25C642 188.168 636.074 202.476 625.525 213.025C614.976 223.574 600.668 229.5 585.75 229.5V173.25H529.5C529.5 158.332 535.426 144.024 545.975 133.475C556.524 122.926 570.832 117 585.75 117C600.668 117 614.976 122.926 625.525 133.475C636.074 144.024 642 158.332 642 173.25Z" fill="#519259"/>
<path d="M304.5 510.75C304.5 521.875 301.201 532.751 295.02 542.001C288.839 551.251 280.054 558.461 269.776 562.718C259.498 566.976 248.188 568.09 237.276 565.919C226.365 563.749 216.342 558.391 208.475 550.525C200.609 542.658 195.251 532.635 193.081 521.724C190.91 510.812 192.024 499.502 196.282 489.224C200.539 478.946 207.749 470.161 216.999 463.98C226.249 457.799 237.125 454.5 248.25 454.5V510.75H304.5Z" fill="#519259"/>
<path d="M642 510.75C642 525.668 636.074 539.976 625.525 550.525C614.976 561.074 600.668 567 585.75 567C570.832 567 556.524 561.074 545.975 550.525C535.426 539.976 529.5 525.668 529.5 510.75H585.75V454.5C600.668 454.5 614.976 460.426 625.525 470.975C636.074 481.524 642 495.832 642 510.75Z" fill="#519259"/>
</g>
<defs>
<clipPath id="clip0_126_87">
<rect width="450" height="450" fill="white" transform="translate(192 117)"/>
</clipPath>
</defs>
</svg>
